<svg width="100" height="100" viewBox="0 0 100 100" xmlns="http://www.w3.org/2000/svg">
  <filter id="shadow" x="-20%" y="-20%" width="140%" height="140%">
    <feDropShadow dx="4" dy="5" stdDeviation="4" flood-opacity="0.5"/>
  </filter>
  
  <filter id="bossGlow" x="-30%" y="-30%" width="160%" height="160%">
    <feGaussianBlur stdDeviation="3" result="blur" />
    <feFlood flood-color="#FF0000" flood-opacity="0.7" result="color" />
    <feComposite in="color" in2="blur" operator="in" result="glow" />
    <feComposite in="SourceGraphic" in2="glow" operator="over" />
  </filter>
  
  <filter id="fireEffect" x="-30%" y="-30%" width="160%" height="160%">
    <feTurbulence type="fractalNoise" baseFrequency="0.05" numOctaves="2" seed="1" />
    <feDisplacementMap in="SourceGraphic" scale="5" />
  </filter>
  
  <!-- 背景阴影 - 增强威慑感 -->
  <rect x="5" y="5" width="90" height="90" rx="5" fill="#000" opacity="0.4" />
  
  <!-- 强化履带底座 - 宽大厚重 -->
  <rect x="12" y="5" width="18" height="90" rx="3" fill="#111" stroke="#800" stroke-width="1.5" />
  <rect x="70" y="5" width="18" height="90" rx="3" fill="#111" stroke="#800" stroke-width="1.5" />
  
  <!-- 履带细节 - 红黑金三色 -->
  <g fill="#000">
    <rect x="12" y="10" width="18" height="8" />
    <rect x="12" y="26" width="18" height="8" />
    <rect x="12" y="42" width="18" height="8" />
    <rect x="12" y="58" width="18" height="8" />
    <rect x="12" y="74" width="18" height="8" />
    
    <rect x="70" y="10" width="18" height="8" />
    <rect x="70" y="26" width="18" height="8" />
    <rect x="70" y="42" width="18" height="8" />
    <rect x="70" y="58" width="18" height="8" />
    <rect x="70" y="74" width="18" height="8" />
  </g>
  
  <!-- 红色履带装甲 -->
  <g fill="#C00">
    <rect x="12" y="18" width="18" height="8" />
    <rect x="12" y="34" width="18" height="8" />
    <rect x="12" y="50" width="18" height="8" />
    <rect x="12" y="66" width="18" height="8" />
    <rect x="12" y="82" width="18" height="8" />
    
    <rect x="70" y="18" width="18" height="8" />
    <rect x="70" y="34" width="18" height="8" />
    <rect x="70" y="50" width="18" height="8" />
    <rect x="70" y="66" width="18" height="8" />
    <rect x="70" y="82" width="18" height="8" />
  </g>
  
  <!-- 黄金装饰铆钉线 -->
  <rect x="16" y="5" width="2" height="90" fill="#FC0" />
  <rect x="24" y="5" width="2" height="90" fill="#FC0" />
  <rect x="74" y="5" width="2" height="90" fill="#FC0" />
  <rect x="82" y="5" width="2" height="90" fill="#FC0" />
  
  <!-- 履带连接器和装甲加固板 -->
  <rect x="30" y="5" width="40" height="8" rx="2" fill="#500" stroke="#A00" stroke-width="1.5" />
  <rect x="30" y="87" width="40" height="8" rx="2" fill="#500" stroke="#A00" stroke-width="1.5" />
  
  <!-- 侧面额外装甲 -->
  <path d="M40,5 L45,0 L55,0 L60,5" fill="none" stroke="#A00" stroke-width="3" />
  <path d="M40,95 L45,100 L55,100 L60,95" fill="none" stroke="#A00" stroke-width="3" />
  
  <!-- 坦克主体 - 更厚重更复杂 -->
  <rect x="30" y="13" width="40" height="74" rx="5" fill="url(#bossBodyGradient)" stroke="#000" stroke-width="3" filter="url(#shadow)" />
  
  <!-- BOSS级装甲板 - 更多层次 -->
  <rect x="33" y="17" width="8" height="66" rx="3" fill="#600" stroke="#A00" stroke-width="1.5" />
  <rect x="59" y="17" width="8" height="66" rx="3" fill="#600" stroke="#A00" stroke-width="1.5" />
  
  <!-- 中央装甲加固区域 -->
  <rect x="41" y="40" width="18" height="20" rx="3" fill="#500" stroke="#800" stroke-width="1.5" />
  <circle cx="50" cy="50" r="7" fill="#700" stroke="#A00" stroke-width="1.5" />
  
  <!-- 侧面装甲 -->
  <rect x="41" y="15" width="18" height="15" rx="2" fill="#800" stroke="#A00" stroke-width="1.5" />
  <rect x="41" y="70" width="18" height="15" rx="2" fill="#800" stroke="#A00" stroke-width="1.5" />
  
  <!-- 装甲尖刺 - 更多更锋利 -->
  <path d="M30,13 L37,20 L37,13 Z" fill="#C00" stroke="#000" stroke-width="1.5" />
  <path d="M30,87 L37,80 L37,87 Z" fill="#C00" stroke="#000" stroke-width="1.5" />
  <path d="M70,13 L63,20 L63,13 Z" fill="#C00" stroke="#000" stroke-width="1.5" />
  <path d="M70,87 L63,80 L63,87 Z" fill="#C00" stroke="#000" stroke-width="1.5" />
  
  <path d="M30,30 L35,35 L35,30 Z" fill="#C00" stroke="#000" stroke-width="1" />
  <path d="M30,50 L35,55 L35,50 Z" fill="#C00" stroke="#000" stroke-width="1" />
  <path d="M30,70 L35,75 L35,70 Z" fill="#C00" stroke="#000" stroke-width="1" />
  <path d="M70,30 L65,35 L65,30 Z" fill="#C00" stroke="#000" stroke-width="1" />
  <path d="M70,50 L65,55 L65,50 Z" fill="#C00" stroke="#000" stroke-width="1" />
  <path d="M70,70 L65,75 L65,70 Z" fill="#C00" stroke="#000" stroke-width="1" />
  
  <!-- 金属铆钉装饰 - 更豪华 -->
  <g>
    <circle cx="33" cy="20" r="1.5" fill="#FC0" stroke="#000" stroke-width="0.5" />
    <circle cx="33" cy="30" r="1.5" fill="#FC0" stroke="#000" stroke-width="0.5" />
    <circle cx="33" cy="40" r="1.5" fill="#FC0" stroke="#000" stroke-width="0.5" />
    <circle cx="33" cy="60" r="1.5" fill="#FC0" stroke="#000" stroke-width="0.5" />
    <circle cx="33" cy="70" r="1.5" fill="#FC0" stroke="#000" stroke-width="0.5" />
    <circle cx="33" cy="80" r="1.5" fill="#FC0" stroke="#000" stroke-width="0.5" />
    
    <circle cx="67" cy="20" r="1.5" fill="#FC0" stroke="#000" stroke-width="0.5" />
    <circle cx="67" cy="30" r="1.5" fill="#FC0" stroke="#000" stroke-width="0.5" />
    <circle cx="67" cy="40" r="1.5" fill="#FC0" stroke="#000" stroke-width="0.5" />
    <circle cx="67" cy="60" r="1.5" fill="#FC0" stroke="#000" stroke-width="0.5" />
    <circle cx="67" cy="70" r="1.5" fill="#FC0" stroke="#000" stroke-width="0.5" />
    <circle cx="67" cy="80" r="1.5" fill="#FC0" stroke="#000" stroke-width="0.5" />
    
    <circle cx="50" cy="20" r="1.5" fill="#FC0" stroke="#000" stroke-width="0.5" />
    <circle cx="50" cy="80" r="1.5" fill="#FC0" stroke="#000" stroke-width="0.5" />
  </g>
  
  <!-- 装饰线条 -->
  <path d="M45,17 L45,30" stroke="#FC0" stroke-width="1" />
  <path d="M55,17 L55,30" stroke="#FC0" stroke-width="1" />
  <path d="M45,70 L45,83" stroke="#FC0" stroke-width="1" />
  <path d="M55,70 L55,83" stroke="#FC0" stroke-width="1" />
  
  <!-- 重型炮塔底座 - 十二边形设计 -->
  <polygon points="34,50 36,43 41,38 50,36 59,38 64,43 66,50 64,57 59,62 50,64 41,62 36,57" 
           fill="url(#bossTurretGradient)" stroke="#000" stroke-width="3" filter="url(#shadow)" />
  
  <!-- 三联炮管设计 - 终极火力 -->
  <rect x="40" y="3" width="6" height="34" fill="#A00" stroke="#500" stroke-width="1.5" filter="url(#shadow)" />
  <rect x="47" y="0" width="6" height="38" fill="#A00" stroke="#500" stroke-width="1.5" filter="url(#shadow)" />
  <rect x="54" y="5" width="6" height="30" fill="#A00" stroke="#500" stroke-width="1.5" filter="url(#shadow)" />
  
  <!-- 炮口 -->
  <rect x="38" y="0" width="10" height="6" rx="2" fill="#500" stroke="#300" stroke-width="1.5" />
  <rect x="45" y="-5" width="10" height="7" rx="2" fill="#500" stroke="#300" stroke-width="1.5" />
  <rect x="52" y="2" width="10" height="5" rx="2" fill="#500" stroke="#300" stroke-width="1.5" />
  
  <!-- 炮管连接部件 -->
  <rect x="38" y="32" width="24" height="10" rx="3" fill="#700" stroke="#500" stroke-width="1.5" />
  <circle cx="50" cy="37" r="4" fill="#A00" stroke="#500" stroke-width="1" />
  
  <!-- 炮管防热套 -->
  <rect x="40" y="10" width="6" height="24" fill="none" stroke="#FC0" stroke-width="1" stroke-dasharray="3,2" />
  <rect x="47" y="6" width="6" height="28" fill="none" stroke="#FC0" stroke-width="1" stroke-dasharray="3,2" />
  <rect x="54" y="14" width="6" height="20" fill="none" stroke="#FC0" stroke-width="1" stroke-dasharray="3,2" />
  
  <!-- 炮管火焰特效 -->
  <circle cx="43" cy="4" r="2" fill="#FF0" opacity="0.7" filter="url(#fireEffect)" />
  <circle cx="50" cy="0" r="2" fill="#FF0" opacity="0.7" filter="url(#fireEffect)" />
  <circle cx="57" cy="7" r="2" fill="#FF0" opacity="0.7" filter="url(#fireEffect)" />
  
  <!-- BOSS标识 - 骷髅王冠 -->
  <circle cx="50" cy="50" r="10" fill="url(#bossBadgeGradient)" stroke="#300" stroke-width="3" filter="url(#bossGlow)" />
  <path d="M45,45 L55,55 M55,45 L45,55" stroke="#000" stroke-width="4" stroke-linecap="round" />
  <path d="M43,48 C43,46 57,46 57,48" stroke="#000" stroke-width="2" fill="none" />
  <path d="M43,52 C43,56 57,56 57,52" stroke="#000" stroke-width="2" fill="none" />
  
  <!-- 皇冠装饰 -->
  <path d="M42,40 L46,42 L50,38 L54,42 L58,40" stroke="#FC0" stroke-width="2" fill="none" />
  <circle cx="46" cy="42" r="1" fill="#FC0" />
  <circle cx="50" cy="38" r="1" fill="#FC0" />
  <circle cx="54" cy="42" r="1" fill="#FC0" />
  
  <!-- 额外强调 - BOSS级光晕效果 -->
  <circle cx="50" cy="50" r="16" fill="none" stroke="#FF0" stroke-width="1" stroke-dasharray="4,2" />
  <circle cx="50" cy="50" r="20" fill="none" stroke="#F00" stroke-width="1.5" stroke-dasharray="1,3" />
  <circle cx="50" cy="50" r="24" fill="none" stroke="#F60" stroke-width="0.5" stroke-dasharray="1,4" />
  
  <!-- BOSS状态指示器 -->
  <rect x="22" y="25" width="6" height="50" rx="3" fill="#500" stroke="#FC0" stroke-width="1" />
  <rect x="23" y="26" width="4" height="48" rx="2" fill="#F00" />
  
  <!-- 警示灯 -->
  <circle cx="25" cy="15" r="3" fill="#F00" filter="url(#bossGlow)" />
  <circle cx="25" cy="85" r="3" fill="#F00" filter="url(#bossGlow)" />
  
  <!-- 定义渐变 -->
  <defs>
    <linearGradient id="bossBodyGradient" x1="0%" y1="0%" x2="100%" y2="100%">
      <stop offset="0%" stop-color="#A00" />
      <stop offset="50%" stop-color="#800" />
      <stop offset="100%" stop-color="#500" />
    </linearGradient>
    <linearGradient id="bossTurretGradient" x1="0%" y1="0%" x2="100%" y2="100%">
      <stop offset="0%" stop-color="#900" />
      <stop offset="50%" stop-color="#700" />
      <stop offset="100%" stop-color="#400" />
    </linearGradient>
    <linearGradient id="bossBadgeGradient" x1="0%" y1="0%" x2="100%" y2="100%">
      <stop offset="0%" stop-color="#F00" />
      <stop offset="50%" stop-color="#A00" />
      <stop offset="100%" stop-color="#700" />
    </linearGradient>
  </defs>
</svg>