<svg width="40" height="40" xmlns="http://www.w3.org/2000/svg">
    <!-- 底层背景 -->
    <rect width="40" height="40" fill="#B22222"/>
    
    <!-- 砖块纹理：每行砖块交错排列 -->
    <!-- 第一行砖块 -->
    <g fill="#CD5C5C">
      <rect x="0" y="0" width="20" height="8"/>
      <rect x="20" y="0" width="20" height="8"/>
    </g>
    
    <!-- 第二行砖块 -->
    <g fill="#CD5C5C">
      <rect x="0" y="8" width="10" height="8"/>
      <rect x="10" y="8" width="20" height="8"/>
      <rect x="30" y="8" width="10" height="8"/>
    </g>
    
    <!-- 第三行砖块 -->
    <g fill="#CD5C5C">
      <rect x="0" y="16" width="20" height="8"/>
      <rect x="20" y="16" width="20" height="8"/>
    </g>
    
    <!-- 第四行砖块 -->
    <g fill="#CD5C5C">
      <rect x="0" y="24" width="10" height="8"/>
      <rect x="10" y="24" width="20" height="8"/>
      <rect x="30" y="24" width="10" height="8"/>
    </g>
    
    <!-- 第五行砖块 -->
    <g fill="#CD5C5C">
      <rect x="0" y="32" width="20" height="8"/>
      <rect x="20" y="32" width="20" height="8"/>
    </g>
    
    <!-- 水泥缝隙 -->
    <g fill="#8B0000" opacity="0.8">
      <!-- 水平缝隙 -->
      <rect x="0" y="8" width="40" height="1"/>
      <rect x="0" y="16" width="40" height="1"/>
      <rect x="0" y="24" width="40" height="1"/>
      <rect x="0" y="32" width="40" height="1"/>
      
      <!-- 垂直缝隙：第一行 -->
      <rect x="20" y="0" width="1" height="8"/>
      
      <!-- 垂直缝隙：第二行 -->
      <rect x="10" y="8" width="1" height="8"/>
      <rect x="30" y="8" width="1" height="8"/>
      
      <!-- 垂直缝隙：第三行 -->
      <rect x="20" y="16" width="1" height="8"/>
      
      <!-- 垂直缝隙：第四行 -->
      <rect x="10" y="24" width="1" height="8"/>
      <rect x="30" y="24" width="1" height="8"/>
      
      <!-- 垂直缝隙：第五行 -->
      <rect x="20" y="32" width="1" height="8"/>
    </g>
    
    <!-- 砖块表面细节：小凹凸和裂缝 -->
    <g stroke="#8B0000" stroke-width="0.5" opacity="0.5">
      <line x1="5" y1="4" x2="8" y2="4"/>
      <line x1="25" y1="4" x2="28" y2="4"/>
      <line x1="3" y1="12" x2="7" y2="12"/>
      <line x1="15" y1="12" x2="18" y2="12"/>
      <line x1="35" y1="12" x2="38" y2="12"/>
      <line x1="5" y1="20" x2="8" y2="20"/>
      <line x1="25" y1="20" x2="28" y2="20"/>
      <line x1="3" y1="28" x2="7" y2="28"/>
      <line x1="15" y1="28" x2="18" y2="28"/>
      <line x1="35" y1="28" x2="38" y2="28"/>
      <line x1="5" y1="36" x2="8" y2="36"/>
      <line x1="25" y1="36" x2="28" y2="36"/>
    </g>
  </svg>