<svg width="40" height="40" xmlns="http://www.w3.org/2000/svg">
    <!-- 底层水面 -->
    <rect width="40" height="40" fill="#4682B4"/>
    
    <!-- 水波纹 -->
    <g fill="#87CEFA" opacity="0.5">
      <!-- 第一层波纹 -->
      <path d="M0,8 Q5,6 10,8 Q15,10 20,8 Q25,6 30,8 Q35,10 40,8 V12 Q35,10 30,12 Q25,14 20,12 Q15,10 10,12 Q5,14 0,12 Z">
        <animate attributeName="d" 
                values="M0,8 Q5,6 10,8 Q15,10 20,8 Q25,6 30,8 Q35,10 40,8 V12 Q35,10 30,12 Q25,14 20,12 Q15,10 10,12 Q5,14 0,12 Z;
                         M0,12 Q5,10 10,12 Q15,14 20,12 Q25,10 30,12 Q35,14 40,12 V16 Q35,14 30,16 Q25,18 20,16 Q15,14 10,16 Q5,18 0,16 Z;
                         M0,8 Q5,6 10,8 Q15,10 20,8 Q25,6 30,8 Q35,10 40,8 V12 Q35,10 30,12 Q25,14 20,12 Q15,10 10,12 Q5,14 0,12 Z" 
                dur="4s" 
                repeatCount="indefinite"/>
      </path>
      
      <!-- 第二层波纹 -->
      <path d="M0,18 Q5,16 10,18 Q15,20 20,18 Q25,16 30,18 Q35,20 40,18 V22 Q35,20 30,22 Q25,24 20,22 Q15,20 10,22 Q5,24 0,22 Z">
        <animate attributeName="d" 
                values="M0,18 Q5,16 10,18 Q15,20 20,18 Q25,16 30,18 Q35,20 40,18 V22 Q35,20 30,22 Q25,24 20,22 Q15,20 10,22 Q5,24 0,22 Z;
                         M0,22 Q5,20 10,22 Q15,24 20,22 Q25,20 30,22 Q35,24 40,22 V26 Q35,24 30,26 Q25,28 20,26 Q15,24 10,26 Q5,28 0,26 Z;
                         M0,18 Q5,16 10,18 Q15,20 20,18 Q25,16 30,18 Q35,20 40,18 V22 Q35,20 30,22 Q25,24 20,22 Q15,20 10,22 Q5,24 0,22 Z" 
                dur="4.5s" 
                repeatCount="indefinite"/>
      </path>
      
      <!-- 第三层波纹 -->
      <path d="M0,28 Q5,26 10,28 Q15,30 20,28 Q25,26 30,28 Q35,30 40,28 V32 Q35,30 30,32 Q25,34 20,32 Q15,30 10,32 Q5,34 0,32 Z">
        <animate attributeName="d" 
                values="M0,28 Q5,26 10,28 Q15,30 20,28 Q25,26 30,28 Q35,30 40,28 V32 Q35,30 30,32 Q25,34 20,32 Q15,30 10,32 Q5,34 0,32 Z;
                         M0,32 Q5,30 10,32 Q15,34 20,32 Q25,30 30,32 Q35,34 40,32 V36 Q35,34 30,36 Q25,38 20,36 Q15,34 10,36 Q5,38 0,36 Z;
                         M0,28 Q5,26 10,28 Q15,30 20,28 Q25,26 30,28 Q35,30 40,28 V32 Q35,30 30,32 Q25,34 20,32 Q15,30 10,32 Q5,34 0,32 Z" 
                dur="5s" 
                repeatCount="indefinite"/>
      </path>
    </g>
    
    <!-- 水面反光 -->
    <g fill="#FFFFFF" opacity="0.3">
      <ellipse cx="10" cy="15" rx="3" ry="1">
        <animate attributeName="cx" values="10;15;10" dur="7s" repeatCount="indefinite"/>
      </ellipse>
      <ellipse cx="25" cy="25" rx="4" ry="1">
        <animate attributeName="cx" values="25;20;25" dur="8s" repeatCount="indefinite"/>
      </ellipse>
      <ellipse cx="32" cy="10" rx="2" ry="0.8">
        <animate attributeName="cx" values="32;36;32" dur="6s" repeatCount="indefinite"/>
      </ellipse>
      <ellipse cx="8" cy="30" rx="2.5" ry="0.8">
        <animate attributeName="cx" values="8;5;8" dur="9s" repeatCount="indefinite"/>
      </ellipse>
    </g>
    
    <!-- 边缘水花效果 -->
    <g fill="#ADD8E6" opacity="0.5">
      <circle cx="5" cy="5" r="1"/>
      <circle cx="15" cy="3" r="0.8"/>
      <circle cx="25" cy="6" r="1.2"/>
      <circle cx="35" cy="4" r="0.9"/>
      <circle cx="10" cy="37" r="1.1"/>
      <circle cx="22" cy="38" r="0.7"/>
      <circle cx="32" cy="36" r="1"/>
      <circle cx="3" cy="22" r="0.8"/>
      <circle cx="38" cy="28" r="1.2"/>
    </g>
  </svg>