<svg height="768" width="1024" xmlns="http://www.w3.org/2000/svg"
  xmlns:xlink="http://www.w3.org/1999/xlink">
  <!-- 高级渐变背景 -->
  <defs>
    <linearGradient id="bgGradient" x1="0%" y1="0%" x2="0%" y2="100%">
      <stop offset="0%" stop-color="#1a2e4d" />
      <stop offset="50%" stop-color="#0f1b2d" />
      <stop offset="100%" stop-color="#0a1624" />
    </linearGradient>
    
    <!-- 网格图案 -->
    <pattern id="grid" width="60" height="60" patternUnits="userSpaceOnUse">
      <path d="M60 0H0V60" fill="none" stroke="#3a5f8a" stroke-width="0.3" opacity="0.15" />
    </pattern>
    
    <!-- 中心辉光 -->
    <radialGradient id="centerGlow" cx="50%" cy="50%" r="50%">
      <stop offset="0%" stop-color="#4a90e2" stop-opacity="0.25" />
      <stop offset="70%" stop-color="#4a90e2" stop-opacity="0.05" />
      <stop offset="100%" stop-color="#4a90e2" stop-opacity="0" />
    </radialGradient>
    
    <!-- 装饰性辉光 -->
    <filter id="softGlow" height="300%" width="300%" x="-75%" y="-75%">
      <feGaussianBlur stdDeviation="5" result="blurred" />
      <feFlood flood-color="#4a90e2" flood-opacity="0.3" result="glowColor" />
      <feComposite in="glowColor" in2="blurred" operator="in" result="softGlow" />
      <feMerge>
        <feMergeNode in="softGlow" />
        <feMergeNode in="SourceGraphic" />
      </feMerge>
    </filter>
  </defs>
  
  <!-- 基础背景 -->
  <rect x="0" y="0" width="1024" height="768" fill="url(#bgGradient)" />
  <rect x="0" y="0" width="1024" height="768" fill="url(#grid)" />
  
  <!-- 装饰性圆和辉光 -->
  <circle cx="512" cy="384" r="300" fill="none" stroke="#3a5f8a" stroke-width="1" opacity="0.15" />
  <circle cx="512" cy="384" r="250" fill="none" stroke="#3a5f8a" stroke-width="0.8" opacity="0.12" />
  <circle cx="512" cy="384" r="200" fill="none" stroke="#3a5f8a" stroke-width="0.6" opacity="0.1" />
  <circle cx="512" cy="384" r="150" fill="url(#centerGlow)" />
  
  <!-- 坐标线 -->
  <path d="M100 384H924" stroke="#3a5f8a" stroke-width="0.5" stroke-dasharray="5 5" opacity="0.2" />
  <path d="M512 100V668" stroke="#3a5f8a" stroke-width="0.5" stroke-dasharray="5 5" opacity="0.2" />
  


  
  <!-- 角落装饰 -->
  <path d="M0 0L100 100" stroke="#4a90e2" stroke-width="1" opacity="0.2" />
  <path d="M1024 0L924 100" stroke="#4a90e2" stroke-width="1" opacity="0.2" />
  <path d="M0 768L100 668" stroke="#4a90e2" stroke-width="1" opacity="0.2" />
  <path d="M1024 768L924 668" stroke="#4a90e2" stroke-width="1" opacity="0.2" />
  
  <!-- 弧形曲线增加动感 -->
  <path d="M100 100Q512 50 924 100" fill="none" stroke="#4a90e2" stroke-width="0.8" opacity="0.2" />
  <path d="M100 668Q512 718 924 668" fill="none" stroke="#4a90e2" stroke-width="0.8" opacity="0.2" />
  
  <!-- 游戏标题背景文字 -->
  <text x="512" y="384" font-family="'Arial Black', Gadget, sans-serif" font-size="68" 
        font-weight="bold" text-anchor="middle" fill="#4a90e2" opacity="0.25" filter="url(#softGlow)">
    ArmoredAssault
  </text>
  
  <!-- 添加一些粒子/星点效果 -->
  <g fill="#ffffff" opacity="0.2">
    <circle cx="123" cy="245" r="1.2" />
    <circle cx="421" cy="132" r="1" />
    <circle cx="732" cy="321" r="1.5" />
    <circle cx="842" cy="521" r="1" />
    <circle cx="342" cy="621" r="1.3" />
    <circle cx="642" cy="452" r="0.8" />
    <circle cx="542" cy="152" r="1.2" />
    <circle cx="212" cy="452" r="1" />
    <circle cx="912" cy="252" r="1.4" />
  </g>
</svg>