<?xml version="1.0" encoding="UTF-8"?>
<svg width="1024" height="768" xmlns="http://www.w3.org/2000/svg" xmlns:xlink="http://www.w3.org/1999/xlink">
  <!-- 背景渐变 -->
  <defs>
    <linearGradient id="bgGradient" x1="0%" y1="0%" x2="0%" y2="100%">
      <stop offset="0%" stop-color="#1B2838" />
      <stop offset="100%" stop-color="#121C28" />
    </linearGradient>
    
    <!-- 网格图案 -->
    <pattern id="gridPattern" width="50" height="50" patternUnits="userSpaceOnUse">
      <path d="M 50 0 L 0 0 0 50" fill="none" stroke="#2A3F5F" stroke-width="0.5" opacity="0.3"/>
    </pattern>
    
    <!-- 坦克剪影图案 -->
    <path id="tankPath" d="M 0,15 H 30 V 5 H 40 V 15 H 45 V 25 H 40 V 35 H 30 V 25 H 0 V 15 Z" fill="#25A0DA" opacity="0.1"/>
  </defs>
  
  <!-- 背景颜色 -->
  <rect width="1024" height="768" fill="url(#bgGradient)" />
  
  <!-- 添加网格 -->
  <rect width="1024" height="768" fill="url(#gridPattern)" />
  
  <!-- 随机分布的坦克剪影 -->
  <use xlink:href="#tankPath" x="100" y="100" transform="scale(1.5) rotate(30)" />
  <use xlink:href="#tankPath" x="300" y="650" transform="scale(2) rotate(-15)" />
  <use xlink:href="#tankPath" x="800" y="200" transform="scale(1.2) rotate(45)" />
  <use xlink:href="#tankPath" x="600" y="400" transform="scale(1.8) rotate(0)" />
  <use xlink:href="#tankPath" x="200" y="450" transform="scale(2.2) rotate(-30)" />
  <use xlink:href="#tankPath" x="850" y="600" transform="scale(1.3) rotate(15)" />
  
  <!-- 装饰性设计元素 - 大圆环 -->
  <circle cx="150" cy="150" r="300" fill="none" stroke="#25A0DA" stroke-width="2" opacity="0.1" />
  <circle cx="850" cy="600" r="400" fill="none" stroke="#25A0DA" stroke-width="2" opacity="0.1" />
  
  <!-- 战斗元素 - 爆炸效果 -->
  <circle cx="700" cy="300" r="30" fill="#FF5500" opacity="0.05" />
  <circle cx="700" cy="300" r="20" fill="#FFAA00" opacity="0.05" />
  <circle cx="250" cy="500" r="25" fill="#FF5500" opacity="0.05" />
  <circle cx="250" cy="500" r="15" fill="#FFAA00" opacity="0.05" />
  
  <!-- 战术线条 -->
  <path d="M 100,650 L 300,600 L 500,650 L 700,600 L 900,650" stroke="#25A0DA" stroke-width="2" fill="none" opacity="0.1" />
  <path d="M 100,100 L 300,150 L 500,100 L 700,150 L 900,100" stroke="#25A0DA" stroke-width="2" fill="none" opacity="0.1" />
</svg>