<svg width="100" height="100" viewBox="0 0 100 100" xmlns="http://www.w3.org/2000/svg">
  <filter id="shadow" x="-20%" y="-20%" width="140%" height="140%">
    <!-- 替换feDropShadow为SVG 1.1兼容的滤镜 -->
    <feGaussianBlur in="SourceAlpha" stdDeviation="3"/>
    <feOffset dx="3" dy="4"/>
    <feComponentTransfer>
      <feFuncA type="linear" slope="0.4"/>
    </feComponentTransfer>
    <feMerge>
      <feMergeNode/>
      <feMergeNode in="SourceGraphic"/>
    </feMerge>
  </filter>
  
  <filter id="glow" x="-30%" y="-30%" width="160%" height="160%">
    <feGaussianBlur stdDeviation="2" result="blur" />
    <feFlood flood-color="#FF0000" flood-opacity="0.5" result="color" />
    <feComposite in="color" in2="blur" operator="in" result="glow" />
    <feComposite in="SourceGraphic" in2="glow" operator="over" />
  </filter>
  
  <!-- 强化背景效果 -->
  <rect x="10" y="10" width="80" height="80" rx="5" fill="#111" opacity="0.3" />
  
  <!-- 履带底座 - 金属黑色 -->
  <rect x="10" y="15" width="80" height="15" rx="2" fill="#111" stroke="#600" stroke-width="1" />
  <rect x="10" y="70" width="80" height="15" rx="2" fill="#111" stroke="#600" stroke-width="1" />
  
  <!-- 履带细节 - 红色与金属 -->
  <g fill="#000">
    <rect x="15" y="15" width="7" height="15" />
    <rect x="29" y="15" width="7" height="15" />
    <rect x="43" y="15" width="7" height="15" />
    <rect x="57" y="15" width="7" height="15" />
    <rect x="71" y="15" width="7" height="15" />
    
    <rect x="15" y="70" width="7" height="15" />
    <rect x="29" y="70" width="7" height="15" />
    <rect x="43" y="70" width="7" height="15" />
    <rect x="57" y="70" width="7" height="15" />
    <rect x="71" y="70" width="7" height="15" />
  </g>
  
  <!-- 红色履带齿轮 -->
  <rect x="22" y="15" width="7" height="15" fill="#F00" />
  <rect x="36" y="15" width="7" height="15" fill="#F00" />
  <rect x="50" y="15" width="7" height="15" fill="#F00" />
  <rect x="64" y="15" width="7" height="15" fill="#F00" />
  <rect x="78" y="15" width="7" height="15" fill="#F00" />
  
  <rect x="22" y="70" width="7" height="15" fill="#F00" />
  <rect x="36" y="70" width="7" height="15" fill="#F00" />
  <rect x="50" y="70" width="7" height="15" fill="#F00" />
  <rect x="64" y="70" width="7" height="15" fill="#F00" />
  <rect x="78" y="70" width="7" height="15" fill="#F00" />
  
  <!-- 履带连接器 - 增强工业感 -->
  <rect x="8" y="30" width="5" height="40" rx="1" fill="#222" stroke="#444" stroke-width="1" />
  <rect x="87" y="30" width="5" height="40" rx="1" fill="#222" stroke="#444" stroke-width="1" />
  
  <!-- 坦克主体 - 更厚重的装甲 -->
  <rect x="15" y="30" width="70" height="40" rx="4" fill="url(#eliteBodyGradient)" stroke="#000" stroke-width="2" filter="url(#shadow)" />
  
  <!-- 精英装甲板 - 多层设计 -->
  <rect x="20" y="34" width="60" height="7" rx="2" fill="#8B0000" stroke="#600" stroke-width="1" />
  <rect x="20" y="59" width="60" height="7" rx="2" fill="#8B0000" stroke="#600" stroke-width="1" />
  
  <!-- 精英装甲加固板 -->
  <rect x="72" y="41" width="10" height="18" rx="2" fill="#A00" stroke="#600" stroke-width="1" />
  <rect x="18" y="41" width="10" height="18" rx="2" fill="#A00" stroke="#600" stroke-width="1" />
  
  <!-- 角落装甲凸起 - 尖锐威慑 -->
  <path d="M15,30 L25,40 L15,40 Z" fill="#F00" stroke="#000" stroke-width="1" />
  <path d="M85,30 L75,40 L85,40 Z" fill="#F00" stroke="#000" stroke-width="1" />
  <path d="M15,70 L25,60 L15,60 Z" fill="#F00" stroke="#000" stroke-width="1" />
  <path d="M85,70 L75,60 L85,60 Z" fill="#F00" stroke="#000" stroke-width="1" />
  
  <!-- 金属铆钉装饰 -->
  <circle cx="25" cy="34" r="1.5" fill="#FF0" stroke="#000" stroke-width="0.5" />
  <circle cx="35" cy="34" r="1.5" fill="#FF0" stroke="#000" stroke-width="0.5" />
  <circle cx="45" cy="34" r="1.5" fill="#FF0" stroke="#000" stroke-width="0.5" />
  <circle cx="55" cy="34" r="1.5" fill="#FF0" stroke="#000" stroke-width="0.5" />
  <circle cx="65" cy="34" r="1.5" fill="#FF0" stroke="#000" stroke-width="0.5" />
  <circle cx="75" cy="34" r="1.5" fill="#FF0" stroke="#000" stroke-width="0.5" />
  
  <circle cx="25" cy="66" r="1.5" fill="#FF0" stroke="#000" stroke-width="0.5" />
  <circle cx="35" cy="66" r="1.5" fill="#FF0" stroke="#000" stroke-width="0.5" />
  <circle cx="45" cy="66" r="1.5" fill="#FF0" stroke="#000" stroke-width="0.5" />
  <circle cx="55" cy="66" r="1.5" fill="#FF0" stroke="#000" stroke-width="0.5" />
  <circle cx="65" cy="66" r="1.5" fill="#FF0" stroke="#000" stroke-width="0.5" />
  <circle cx="75" cy="66" r="1.5" fill="#FF0" stroke="#000" stroke-width="0.5" />
  
  <!-- 高级炮塔底座 - 八边形设计 -->
  <polygon points="50,35 60,38 65,50 60,62 50,65 40,62 35,50 40,38" fill="url(#eliteTurretGradient)" stroke="#000" stroke-width="2" filter="url(#shadow)" />
  
  <!-- 双炮管设计 - 向左 -->
  <rect x="7" y="44" width="30" height="5" fill="#A00" stroke="#000" stroke-width="1.5" filter="url(#shadow)" />
  <rect x="7" y="51" width="30" height="5" fill="#A00" stroke="#000" stroke-width="1.5" filter="url(#shadow)" />
  <rect x="4" y="42" width="6" height="9" rx="2" fill="#800" stroke="#000" stroke-width="1" />
  <rect x="4" y="49" width="6" height="9" rx="2" fill="#800" stroke="#000" stroke-width="1" />
  
  <!-- 炮管连接件 -->
  <rect x="32" y="42" width="8" height="16" rx="2" fill="#600" stroke="#000" stroke-width="1" />
  
  <!-- 炮管防热套 -->
  <rect x="13" y="44" width="20" height="5" fill="none" stroke="#FF0" stroke-width="0.5" stroke-dasharray="2,1" />
  <rect x="13" y="51" width="20" height="5" fill="none" stroke="#FF0" stroke-width="0.5" stroke-dasharray="2,1" />
  
  <!-- 精英敌方标识 - 骷髅星标志 -->
  <circle cx="50" cy="50" r="10" fill="url(#eliteBadgeGradient)" stroke="#000" stroke-width="2" filter="url(#glow)" />
  <path d="M45,45 L55,55 M55,45 L45,55" stroke="#000" stroke-width="3" />
  <polygon points="50,40 52,45 58,45 53,49 55,55 50,51 45,55 47,49 42,45 48,45" fill="#FF0" stroke="#000" stroke-width="0.5" transform="scale(0.7) translate(30, 30)" />
  
  <!-- 额外强调 - 高级发光效果 -->
  <circle cx="50" cy="50" r="15" fill="none" stroke="#FF0" stroke-width="1" stroke-dasharray="3,3" />
  <circle cx="50" cy="50" r="18" fill="none" stroke="#F00" stroke-width="0.5" stroke-dasharray="1,2" />
  
  <!-- 精英状态图标 -->
  <rect x="30" y="25" width="40" height="4" rx="2" fill="#FF0" stroke="#000" stroke-width="0.5" />
  <rect x="32" y="25" width="36" height="4" rx="2" fill="#F00" />
  
  <!-- 定义渐变 -->
  <defs>
    <linearGradient id="eliteBodyGradient" x1="0%" y1="0%" x2="100%" y2="100%">
      <stop offset="10%" stop-color="#F00" />
      <stop offset="60%" stop-color="#B00" />
      <stop offset="100%" stop-color="#800" />
    </linearGradient>
    <linearGradient id="eliteTurretGradient" x1="0%" y1="0%" x2="100%" y2="100%">
      <stop offset="0%" stop-color="#C00" />
      <stop offset="60%" stop-color="#900" />
      <stop offset="100%" stop-color="#600" />
    </linearGradient>
    <linearGradient id="eliteBadgeGradient" x1="0%" y1="0%" x2="100%" y2="100%">
      <stop offset="0%" stop-color="#F00" />
      <stop offset="100%" stop-color="#900" />
    </linearGradient>
  </defs>
</svg>