<svg width="100" height="100" viewBox="0 0 100 100" xmlns="http://www.w3.org/2000/svg">
  <filter id="shadow" x="-20%" y="-20%" width="140%" height="140%">
    <!-- 替换feDropShadow为SVG 1.1兼容的滤镜 -->
    <feGaussianBlur in="SourceAlpha" stdDeviation="3"/>
    <feOffset dx="2" dy="3"/>
    <feComponentTransfer>
      <feFuncA type="linear" slope="0.4"/>
    </feComponentTransfer>
    <feMerge>
      <feMergeNode/>
      <feMergeNode in="SourceGraphic"/>
    </feMerge>
  </filter>
    
    <!-- 履带底座 - 左右两侧 -->
    <rect x="20" y="15" width="12" height="70" rx="3" fill="#333" />
    <rect x="68" y="15" width="12" height="70" rx="3" fill="#333" />
    
    <!-- 履带细节 -->
    <g fill="#222">
      <rect x="20" y="20" width="12" height="5" />
      <rect x="20" y="30" width="12" height="5" />
      <rect x="20" y="40" width="12" height="5" />
      <rect x="20" y="50" width="12" height="5" />
      <rect x="20" y="60" width="12" height="5" />
      <rect x="20" y="75" width="12" height="5" />
      
      <rect x="68" y="20" width="12" height="5" />
      <rect x="68" y="30" width="12" height="5" />
      <rect x="68" y="40" width="12" height="5" />
      <rect x="68" y="50" width="12" height="5" />
      <rect x="68" y="60" width="12" height="5" />
      <rect x="68" y="75" width="12" height="5" />
    </g>
    
    <!-- 坦克主体 - 垂直方向 -->
    <rect x="32" y="20" width="36" height="60" rx="5" fill="url(#tankBodyGradient)" filter="url(#shadow)" />
    
    <!-- 主体装饰 -->
    <rect x="37" y="25" width="6" height="50" rx="2" fill="#2A6B3A" opacity="0.7" />
    <rect x="57" y="25" width="6" height="50" rx="2" fill="#2A6B3A" opacity="0.7" />
    <rect x="43" y="25" width="14" height="8" rx="1" fill="#2A6B3A" opacity="0.5" />
    <rect x="43" y="67" width="14" height="8" rx="1" fill="#2A6B3A" opacity="0.5" />
    
    <!-- 坦克炮塔底座 -->
    <circle cx="50" cy="50" r="14" fill="url(#turretGradient)" filter="url(#shadow)" />
    
    <!-- 炮管 - 向上 -->
    <rect x="48" y="7" width="4" height="26" fill="url(#gunGradientV)" filter="url(#shadow)" />
    <rect x="46" y="7" width="8" height="5" rx="2" fill="#1F4726" />
    <rect x="47" y="28" width="6" height="5" rx="1" fill="#2C5530" />
    
    <!-- 装甲细节 -->
    <circle cx="50" cy="50" r="8" fill="#4A9D54" opacity="0.7" />
    <circle cx="50" cy="50" r="4" fill="#2C5530" />
    
    <!-- 定义渐变 -->
    <defs>
      <linearGradient id="tankBodyGradient" x1="0%" y1="0%" x2="100%" y2="100%">
        <stop offset="10%" stop-color="#57BD64" />
        <stop offset="90%" stop-color="#3A7D44" />
      </linearGradient>
      <linearGradient id="turretGradient" x1="0%" y1="0%" x2="100%" y2="100%">
        <stop offset="0%" stop-color="#4A9D54" />
        <stop offset="100%" stop-color="#2C5530" />
      </linearGradient>
      <linearGradient id="gunGradientV" x1="0%" y1="0%" x2="0%" y2="100%">
        <stop offset="0%" stop-color="#1F4726" />
        <stop offset="40%" stop-color="#2C5530" />
        <stop offset="100%" stop-color="#3A7D44" />
      </linearGradient>
    </defs>
  </svg>