<svg width="100" height="100" viewBox="0 0 100 100" xmlns="http://www.w3.org/2000/svg">
  <filter id="shadow" x="-20%" y="-20%" width="140%" height="140%">
    <!-- 替换feDropShadow为SVG 1.1兼容的滤镜 -->
    <feGaussianBlur in="SourceAlpha" stdDeviation="3"/>
    <feOffset dx="2" dy="3"/>
    <feComponentTransfer>
      <feFuncA type="linear" slope="0.4"/>
    </feComponentTransfer>
    <feMerge>
      <feMergeNode/>
      <feMergeNode in="SourceGraphic"/>
    </feMerge>
  </filter>
    
    <!-- 履带底座 - 水平方向 -->
    <rect x="15" y="20" width="70" height="12" rx="3" fill="#333" />
    <rect x="15" y="68" width="70" height="12" rx="3" fill="#333" />
    
    <!-- 履带细节 -->
    <g fill="#222">
      <rect x="20" y="20" width="5" height="12" />
      <rect x="30" y="20" width="5" height="12" />
      <rect x="40" y="20" width="5" height="12" />
      <rect x="50" y="20" width="5" height="12" />
      <rect x="60" y="20" width="5" height="12" />
      <rect x="75" y="20" width="5" height="12" />
      
      <rect x="20" y="68" width="5" height="12" />
      <rect x="30" y="68" width="5" height="12" />
      <rect x="40" y="68" width="5" height="12" />
      <rect x="50" y="68" width="5" height="12" />
      <rect x="60" y="68" width="5" height="12" />
      <rect x="75" y="68" width="5" height="12" />
    </g>
    
    <!-- 坦克主体 - 水平方向 -->
    <rect x="20" y="32" width="60" height="36" rx="5" fill="url(#tankBodyGradient)" filter="url(#shadow)" />
    
    <!-- 主体装饰 -->
    <rect x="25" y="37" width="50" height="6" rx="2" fill="#2A6B3A" opacity="0.7" />
    <rect x="25" y="57" width="50" height="6" rx="2" fill="#2A6B3A" opacity="0.7" />
    <rect x="25" y="43" width="8" height="14" rx="1" fill="#2A6B3A" opacity="0.5" />
    <rect x="67" y="43" width="8" height="14" rx="1" fill="#2A6B3A" opacity="0.5" />
    
    <!-- 坦克炮塔底座 -->
    <circle cx="50" cy="50" r="14" fill="url(#turretGradient)" filter="url(#shadow)" />
    
    <!-- 炮管 - 水平向右 -->
    <rect x="64" y="48" width="26" height="4" fill="url(#gunGradientH)" filter="url(#shadow)" />
    <rect x="88" y="46" width="5" height="8" rx="2" fill="#1F4726" />
    <rect x="64" y="47" width="5" height="6" rx="1" fill="#2C5530" />
    
    <!-- 装甲细节 -->
    <circle cx="50" cy="50" r="8" fill="#4A9D54" opacity="0.7" />
    <circle cx="50" cy="50" r="4" fill="#2C5530" />
    
    <!-- 定义渐变 -->
    <defs>
      <linearGradient id="tankBodyGradient" x1="0%" y1="0%" x2="100%" y2="100%">
        <stop offset="10%" stop-color="#57BD64" />
        <stop offset="90%" stop-color="#3A7D44" />
      </linearGradient>
      <linearGradient id="turretGradient" x1="0%" y1="0%" x2="100%" y2="100%">
        <stop offset="0%" stop-color="#4A9D54" />
        <stop offset="100%" stop-color="#2C5530" />
      </linearGradient>
      <linearGradient id="gunGradientH" x1="0%" y1="0%" x2="100%" y2="0%">
        <stop offset="0%" stop-color="#3A7D44" />
        <stop offset="60%" stop-color="#2C5530" />
        <stop offset="100%" stop-color="#1F4726" />
      </linearGradient>
    </defs>
  </svg>