<svg width="100" height="100" viewBox="0 0 100 100" xmlns="http://www.w3.org/2000/svg">
  <filter id="shadow" x="-20%" y="-20%" width="140%" height="140%">
    <!-- 替换feDropShadow为SVG 1.1兼容的滤镜 -->
    <feGaussianBlur in="SourceAlpha" stdDeviation="3"/>
    <feOffset dx="2" dy="3"/>
    <feComponentTransfer>
      <feFuncA type="linear" slope="0.4"/>
    </feComponentTransfer>
    <feMerge>
      <feMergeNode/>
      <feMergeNode in="SourceGraphic"/>
    </feMerge>
  </filter>
  
  <!-- 较细的履带底座 - 左右两侧 -->
  <rect x="22" y="18" width="8" height="65" rx="4" fill="#333" />
  <rect x="70" y="18" width="8" height="65" rx="4" fill="#333" />
  
  <!-- 履带细节 -->
  <g fill="#222">
    <rect x="22" y="23" width="8" height="4" />
    <rect x="22" y="33" width="8" height="4" />
    <rect x="22" y="43" width="8" height="4" />
    <rect x="22" y="53" width="8" height="4" />
    <rect x="22" y="63" width="8" height="4" />
    <rect x="22" y="73" width="8" height="4" />
    
    <rect x="70" y="23" width="8" height="4" />
    <rect x="70" y="33" width="8" height="4" />
    <rect x="70" y="43" width="8" height="4" />
    <rect x="70" y="53" width="8" height="4" />
    <rect x="70" y="63" width="8" height="4" />
    <rect x="70" y="73" width="8" height="4" />
  </g>
  
  <!-- 坦克主体 - 更流线型 -->
  <path d="M30,25 L50,20 L70,25 L70,75 L50,80 L30,75 Z" fill="url(#lightBodyGradient)" filter="url(#shadow)" />
  
  <!-- 主体装饰 -->
  <rect x="40" y="30" width="3" height="40" rx="1" fill="#3DBCA1" opacity="0.7" />
  <rect x="57" y="30" width="3" height="40" rx="1" fill="#3DBCA1" opacity="0.7" />
  <rect x="45" y="28" width="10" height="5" rx="2" fill="#3DBCA1" opacity="0.5" />
  <rect x="45" y="67" width="10" height="5" rx="2" fill="#3DBCA1" opacity="0.5" />
  
  <!-- 坦克炮塔底座 - 较小 -->
  <circle cx="50" cy="50" r="10" fill="url(#lightTurretGradient)" filter="url(#shadow)" />
  
  <!-- 改进: 粗一些的炮管 - 向上 -->
  <rect x="47.5" y="10" width="5" height="30" fill="url(#lightGunGradientV)" filter="url(#shadow)" />
  <rect x="46" y="7" width="8" height="6" rx="2" fill="#1C8873" />
  <rect x="46" y="35" width="8" height="5" rx="1" fill="#1C8873" />
  
  <!-- 炮管明显的强调边框 -->
  <rect x="47.5" y="10" width="5" height="30" fill="none" stroke="#157863" stroke-width="1" />
  
  <!-- 装甲细节 -->
  <circle cx="50" cy="50" r="6" fill="#7DDBCA" opacity="0.7" />
  <circle cx="50" cy="50" r="3" fill="#1C8873" />
  
  <!-- 定义渐变 -->
  <defs>
    <linearGradient id="lightBodyGradient" x1="0%" y1="0%" x2="100%" y2="100%">
      <stop offset="10%" stop-color="#7DDBCA" />
      <stop offset="90%" stop-color="#3DBCA1" />
    </linearGradient>
    <linearGradient id="lightTurretGradient" x1="0%" y1="0%" x2="100%" y2="100%">
      <stop offset="0%" stop-color="#64CAB8" />
      <stop offset="100%" stop-color="#1C8873" />
    </linearGradient>
    <linearGradient id="lightGunGradientV" x1="0%" y1="0%" x2="0%" y2="100%">
      <stop offset="0%" stop-color="#1C8873" />
      <stop offset="60%" stop-color="#3DBCA1" />
      <stop offset="100%" stop-color="#64CAB8" />
    </linearGradient>
  </defs>
</svg>